<svg width="32" height="24" viewBox="0 0 32 24" fill="none" xmlns="http://www.w3.org/2000/svg">
<path fill-rule="evenodd" clip-rule="evenodd" d="M11.4752 14.1344L16.0032 17.2304L20.368 14.2192L30.152 23.872C29.8944 23.9552 29.6192 24 29.3328 24H2.6672C2.3152 24 1.9792 23.9312 1.6704 23.808L11.4752 14.1344ZM32 6.2016V21.3328C32 21.728 31.9136 22.1024 31.76 22.44L22.1696 12.9776L32 6.2016ZM1.50976e-06 6.2864L9.6672 12.8976L0.169602 22.2704C0.0571148 21.9706 -0.000339573 21.653 1.50976e-06 21.3328V6.2864ZM29.3328 0C30.8048 0 32 1.1936 32 2.6672V3.6048L15.9968 14.6368L1.50976e-06 3.696V2.6672C1.50976e-06 1.1952 1.1936 0 2.6672 0H29.3328Z" fill="white"/>
</svg>
