<svg width="26" height="24" viewBox="0 0 26 24" fill="none" xmlns="http://www.w3.org/2000/svg">
<path d="M13 0C11.3728 0 9.76158 0.318095 8.25829 0.936124C6.75499 1.55415 5.38907 2.46001 4.23849 3.60198C1.91481 5.90829 0.609375 9.03631 0.609375 12.2979C0.609375 17.7336 4.16547 22.3453 9.08454 23.981C9.70406 24.0793 9.90231 23.6981 9.90231 23.3661V21.2877C6.47012 22.0256 5.73908 19.6398 5.73908 19.6398C5.16911 18.2132 4.36372 17.832 4.36372 17.832C3.23618 17.0695 4.45046 17.0941 4.45046 17.0941C5.68952 17.1802 6.34622 18.3608 6.34622 18.3608C7.4242 20.2301 9.24561 19.6767 9.95188 19.3815C10.0634 18.5822 10.3855 18.0411 10.7325 17.7336C7.98177 17.4262 5.09477 16.3685 5.09477 11.683C5.09477 10.318 5.56561 9.22344 6.371 8.35029C6.24709 8.04284 5.81342 6.76386 6.4949 5.10364C6.4949 5.10364 7.53571 4.7716 9.90231 6.35803C10.8812 6.08747 11.9468 5.9522 13 5.9522C14.0532 5.9522 15.1188 6.08747 16.0976 6.35803C18.4642 4.7716 19.505 5.10364 19.505 5.10364C20.1865 6.76386 19.7528 8.04284 19.6289 8.35029C20.4343 9.22344 20.9052 10.318 20.9052 11.683C20.9052 16.3808 18.0058 17.4139 15.2427 17.7213C15.6887 18.1025 16.0976 18.8527 16.0976 19.9964V23.3661C16.0976 23.6981 16.2959 24.0916 16.9278 23.981C21.8468 22.333 25.3905 17.7336 25.3905 12.2979C25.3905 10.6829 25.0701 9.08376 24.4474 7.59171C23.8247 6.09966 22.912 4.74395 21.7614 3.60198C20.6109 2.46001 19.2449 1.55415 17.7416 0.936124C16.2383 0.318095 14.6271 0 13 0Z" fill="white"/>
</svg>
