<svg width="26" height="24" viewBox="0 0 26 24" fill="none" xmlns="http://www.w3.org/2000/svg">
<path d="M22.6371 0C23.3673 0 24.0677 0.280951 24.5841 0.781048C25.1004 1.28115 25.3905 1.95942 25.3905 2.66667V21.3333C25.3905 22.0406 25.1004 22.7189 24.5841 23.219C24.0677 23.719 23.3673 24 22.6371 24H3.36284C2.63257 24 1.93222 23.719 1.41585 23.219C0.899471 22.7189 0.609375 22.0406 0.609375 21.3333V2.66667C0.609375 1.95942 0.899471 1.28115 1.41585 0.781048C1.93222 0.280951 2.63257 0 3.36284 0H22.6371ZM21.9487 20.6667V13.6C21.9487 12.4472 21.4759 11.3416 20.6342 10.5264C19.7925 9.71128 18.6509 9.25333 17.4606 9.25333C16.2903 9.25333 14.9274 9.94667 14.2666 10.9867V9.50667H10.4255V20.6667H14.2666V14.0933C14.2666 13.0667 15.1201 12.2267 16.1802 12.2267C16.6914 12.2267 17.1816 12.4233 17.5431 12.7734C17.9046 13.1235 18.1076 13.5983 18.1076 14.0933V20.6667H21.9487ZM5.95109 7.41333C6.56452 7.41333 7.15281 7.17733 7.58657 6.75725C8.02032 6.33717 8.264 5.76742 8.264 5.17333C8.264 3.93333 7.23145 2.92 5.95109 2.92C5.33402 2.92 4.74222 3.1574 4.30588 3.57999C3.86955 4.00257 3.62442 4.57571 3.62442 5.17333C3.62442 6.41333 4.67073 7.41333 5.95109 7.41333ZM7.86475 20.6667V9.50667H4.0512V20.6667H7.86475Z" fill="white"/>
</svg>
