<svg width="32" height="32" viewBox="0 0 32 32" fill="none" xmlns="http://www.w3.org/2000/svg">
<g clip-path="url(#clip0_18_2)">
<path d="M28.16 0H3.84C1.71923 0 0 1.71923 0 3.84V28.16C0 30.2808 1.71923 32 3.84 32H28.16C30.2808 32 32 30.2808 32 28.16V3.84C32 1.71923 30.2808 0 28.16 0Z" fill="#07060F"/>
<path opacity="0.6" d="M4.80005 12.8C8.00005 9.06667 11.7334 7.57333 16 8.32" stroke="url(#paint0_linear_18_2)" stroke-width="0.4" stroke-linecap="round"/>
<path opacity="0.6" d="M27.2 12.8C24 9.06667 20.2667 7.57333 16 8.32" stroke="url(#paint1_linear_18_2)" stroke-width="0.4" stroke-linecap="round"/>
<path d="M12.16 10.88L9.28003 21.12" stroke="url(#paint2_linear_18_2)" stroke-width="0.8" stroke-linecap="round"/>
<path d="M12.16 10.88L15.04 21.12" stroke="url(#paint3_linear_18_2)" stroke-width="0.8" stroke-linecap="round"/>
<path d="M10.08 16.96H14.24" stroke="url(#paint4_linear_18_2)" stroke-width="0.64" stroke-linecap="round"/>
<path d="M22.08 11.52C18.6666 11.52 16.96 13.0133 16.96 16C16.96 18.9867 18.6666 20.48 22.08 20.48" stroke="url(#paint5_linear_18_2)" stroke-width="0.8" stroke-linecap="round"/>
<path d="M22.08 11.52H20.16" stroke="url(#paint6_linear_18_2)" stroke-width="0.8" stroke-linecap="round"/>
<path d="M22.08 20.48H20.16" stroke="url(#paint7_linear_18_2)" stroke-width="0.8" stroke-linecap="round"/>
<path opacity="0.9" d="M16.792 15.8869L16.1131 15.208C16.0507 15.1456 15.9493 15.1456 15.8869 15.208L15.208 15.8869C15.1456 15.9493 15.1456 16.0507 15.208 16.1131L15.8869 16.792C15.9493 16.8544 16.0507 16.8544 16.1131 16.792L16.792 16.1131C16.8544 16.0507 16.8544 15.9493 16.792 15.8869Z" fill="#6366F1"/>
</g>
<defs>
<linearGradient id="paint0_linear_18_2" x1="4.80005" y1="8.13333" x2="336.161" y2="803.4" gradientUnits="userSpaceOnUse">
<stop stop-color="#6366F1"/>
<stop offset="1" stop-color="#C7D2FE"/>
</linearGradient>
<linearGradient id="paint1_linear_18_2" x1="16" y1="8.13333" x2="347.361" y2="803.4" gradientUnits="userSpaceOnUse">
<stop stop-color="#6366F1"/>
<stop offset="1" stop-color="#C7D2FE"/>
</linearGradient>
<linearGradient id="paint2_linear_18_2" x1="9.28003" y1="10.88" x2="543.057" y2="161.005" gradientUnits="userSpaceOnUse">
<stop stop-color="#6366F1"/>
<stop offset="1" stop-color="#C7D2FE"/>
</linearGradient>
<linearGradient id="paint3_linear_18_2" x1="12.16" y1="10.88" x2="545.937" y2="161.005" gradientUnits="userSpaceOnUse">
<stop stop-color="#6366F1"/>
<stop offset="1" stop-color="#C7D2FE"/>
</linearGradient>
<linearGradient id="paint4_linear_18_2" x1="-nan" y1="-nan" x2="-nan" y2="-nan" gradientUnits="userSpaceOnUse">
<stop stop-color="#6366F1"/>
<stop offset="1" stop-color="#C7D2FE"/>
</linearGradient>
<linearGradient id="paint5_linear_18_2" x1="16.96" y1="11.52" x2="788.898" y2="452.628" gradientUnits="userSpaceOnUse">
<stop stop-color="#6366F1"/>
<stop offset="1" stop-color="#C7D2FE"/>
</linearGradient>
<linearGradient id="paint6_linear_18_2" x1="-nan" y1="-nan" x2="-nan" y2="-nan" gradientUnits="userSpaceOnUse">
<stop stop-color="#6366F1"/>
<stop offset="1" stop-color="#C7D2FE"/>
</linearGradient>
<linearGradient id="paint7_linear_18_2" x1="-nan" y1="-nan" x2="-nan" y2="-nan" gradientUnits="userSpaceOnUse">
<stop stop-color="#6366F1"/>
<stop offset="1" stop-color="#C7D2FE"/>
</linearGradient>
<clipPath id="clip0_18_2">
<rect width="32" height="32" fill="white"/>
</clipPath>
</defs>
</svg>
